:SAMPLES-PER-SECOND 30
:FULLY-SPECIFIED
:DEGREES
339
root  22.1312 39.9175 78.7459 -7.8315 -7.23296 -1.42318
RightUpLeg  -2.39105 0.109588 5.57522
RightLeg  13.2593 -2.17223 -2.80682
RightFoot  -3.02918 0.304361 -3.38012
RightToes  5.82077e-011 -3.18055e-015 -2.98177e-016
Spine  3.24878 0.971997 5.78511
Spine1  5.75806 1.21402 1.71767
HEad  -1.45136 1.2523 1.96485
LeftShoulder1  -3.88251e-019 9.70628e-020 -3.87848e-018
LeftArm  -31.2748 54.825 -74.6294
LeftForeArm  -10.4862 -8.86464 -2.71048
LeftHand  -0.182359 0.401421 4.6728
RightShoulder  8.04895 10.9072 37.2794
RightArm  19.2688 -37.5473 18.5232
RightForeArm  -3.0327 20.3943 -9.68949
RightHand  -1.56921 5.76639 -16.1849
LeftUpLeg  -5.39919 0.50111 -2.03613
LeftLeg  20.6275 5.83855 9.07879
LeftFoot  -6.92521 -0.172066 2.84214
LeftToes  7.79675e-011 9.80247e-012 -3.28897e-011
340
root  22.1556 40.1725 79.0196 -7.07988 -8.60134 -0.0760756
RightUpLeg  -2.02279 0.276257 4.36529
RightLeg  11.0193 -0.776987 -2.23453
RightFoot  -2.19958 0.32316 -3.35148
RightToes  5.82077e-011 -3.18055e-015 -2.98177e-016
Spine  2.27221 1.55984 3.90402
Spine1  5.79825 1.70945 1.35841
HEad  -1.54026 1.46251 2.26741
LeftShoulder1  -3.88251e-019 9.70628e-020 -3.87848e-018
LeftArm  -33.0228 55.9803 -74.9016
LeftForeArm  -9.79274 -5.32095 -2.32772
LeftHand  -0.126453 2.06779 4.77615
RightShoulder  8.09084 10.9127 37.4717
RightArm  18.3508 -37.0774 19.6096
RightForeArm  -4.79406 20.6042 -9.94826
RightHand  -1.57089 5.52823 -16.5413
LeftUpLeg  -3.6573 3.74185 -3.07179
LeftLeg  16.126 4.73205 6.89136
LeftFoot  -5.53416 -0.249762 3.53181
LeftToes  7.79675e-011 9.80247e-012 -3.28897e-011
341
root  22.2081 40.3516 79.2446 -6.02344 -9.25931 0.818429
RightUpLeg  -2.20284 0.246928 3.40268
RightLeg  9.25468 0.0814689 -1.70972
RightFoot  -1.52521 0.328757 -3.23458
RightToes  5.82077e-011 -3.18055e-015 -2.98177e-016
Spine  1.75665 1.66861 2.97395
Spine1  4.97403 1.87969 0.595102
HEad  -1.6508 1.58093 2.32872
LeftShoulder1  -3.88251e-019 9.70628e-020 -3.87848e-018
LeftArm  -33.7894 57.6555 -74.3671
LeftForeArm  -7.60471 -3.4903 -1.80538
LeftHand  -0.099613 2.3745 4.0975
RightShoulder  8.00719 10.8795 37.1369
RightArm  18.1569 -37.6692 20.7807
RightForeArm  -6.17857 20.8998 -10.2745
RightHand  -1.55942 5.51226 -16.4468
LeftUpLeg  -3.08885 4.12043 -4.00756
LeftLeg  13.4616 5.39862 5.71852
LeftFoot  -4.18955 -0.357392 4.4567
LeftToes  7.79675e-011 9.80247e-012 -3.28897e-011
342
root  22.278 40.447 79.4412 -5.07018 -8.92099 1.00772
RightUpLeg  -2.28417 0.176931 2.9985
RightLeg  7.97933 -0.15594 -1.32303
RightFoot  -1.02521 0.336444 -3.18904
RightToes  5.82077e-011 -3.18055e-015 -2.98177e-016
Spine  1.69814 1.28096 2.96682
Spine1  4.05934 1.59152 -0.203168
HEad  -2.07357 1.54451 2.28928
LeftShoulder1  -3.88251e-019 9.70628e-020 -3.87848e-018
LeftArm  -33.5367 59.336 -73.2441
LeftForeArm  -6.28184 -3.01465 -1.58331
LeftHand  -0.0748278 2.54445 3.17921
RightShoulder  7.92682 10.8508 36.8067
RightArm  19.3939 -38.4319 21.4164
RightForeArm  -6.4448 21.3632 -10.7845
RightHand  -1.52164 5.69192 -15.8057
LeftUpLeg  -3.0377 1.42786 -4.63401
LeftLeg  12.1972 7.96013 5.55998
LeftFoot  -3.76095 -0.377609 4.50238
LeftToes  7.79675e-011 9.80247e-012 -3.28897e-011
343
root  22.3406 40.5104 79.616 -4.66269 -8.44052 0.908749
RightUpLeg  -1.79603 0.255347 2.93399
RightLeg  6.8571 -0.721246 -1.08203
RightFoot  -0.673808 0.338259 -3.13474
RightToes  5.82077e-011 -3.18055e-015 -2.98177e-016
Spine  2.09232 1.00729 3.36518
Spine1  3.66527 1.45431 -1.06961
HEad  -3.07711 1.08387 2.37677
LeftShoulder1  -3.88251e-019 9.70628e-020 -3.87848e-018
LeftArm  -32.6806 60.4845 -72.0248
LeftForeArm  -6.41501 -3.50923 -1.68522
LeftHand  -0.0787406 2.88726 3.80594
RightShoulder  8.0332 10.8874 37.246
RightArm  22.2562 -38.5096 20.6772
RightForeArm  -5.85058 22.0032 -11.4603
RightHand  -1.48364 5.97704 -15.0458
LeftUpLeg  -2.52235 -1.02876 -4.94295
LeftLeg  10.8222 9.99813 5.38894
LeftFoot  -3.56388 -0.375786 4.39062
LeftToes  7.79675e-011 9.80247e-012 -3.28897e-011
344
root  22.3798 40.5755 79.7542 -4.51395 -8.35389 0.959082
RightUpLeg  -1.21455 0.345839 2.80363
RightLeg  5.82034 -0.846503 -0.857698
RightFoot  -0.429242 0.32702 -3.00029
RightToes  5.82077e-011 -3.18055e-015 -2.98177e-016
Spine  2.31746 1.20124 3.51817
Spine1  4.03453 1.78278 -1.80289
HEad  -4.49541 0.111405 2.46418
LeftShoulder1  -3.88251e-019 9.70628e-020 -3.87848e-018
LeftArm  -31.7942 60.9204 -71.2208
LeftForeArm  -6.82518 -4.65514 -1.79539
LeftHand  -0.1434 2.36029 5.97729
RightShoulder  8.25465 10.9618 38.1575
RightArm  24.754 -37.9931 19.3253
RightForeArm  -4.41277 22.2309 -11.7233
RightHand  -1.48967 6.32578 -14.6708
LeftUpLeg  -1.82556 -2.05506 -5.12648
LeftLeg  9.41125 10.9504 4.80815
LeftFoot  -3.05442 -0.420939 4.69627
LeftToes  7.79675e-011 9.80247e-012 -3.28897e-011
345
root  22.3975 40.629 79.8502 -4.05167 -8.24533 1.14621
RightUpLeg  -1.19814 0.293907 2.52584
RightLeg  5.07474 -0.843048 -0.591678
RightFoot  -0.278778 0.311572 -2.84575
RightToes  5.82077e-011 -3.18055e-015 -2.98177e-016
Spine  1.72774 1.58611 3.23765
Spine1  5.00727 2.21063 -2.03223
HEad  -5.84602 -1.05173 2.44528
LeftShoulder1  -3.88251e-019 9.70628e-020 -3.87848e-018
LeftArm  -30.9207 60.8334 -70.8366
LeftForeArm  -7.12968 -6.14111 -1.84576
LeftHand  -0.260115 1.04434 7.68716
RightShoulder  8.36631 10.9975 38.6157
RightArm  24.7142 -37.6512 18.7652
RightForeArm  -1.99801 21.463 -10.9695
RightHand  -1.52198 6.63878 -14.6074
LeftUpLeg  -1.67104 -2.23234 -5.2504
LeftLeg  8.46555 11.1536 4.12738
LeftFoot  -2.62333 -0.460153 4.94458
LeftToes  7.79675e-011 9.80247e-012 -3.28897e-011
346
root  22.408 40.6593 79.9235 -3.33582 -7.69762 1.26679
RightUpLeg  -1.54529 0.168249 2.2773
RightLeg  4.61043 -1.25317 -0.354999
RightFoot  -0.23727 0.296786 -2.71279
RightToes  5.82077e-011 -3.18055e-015 -2.98177e-016
Spine  0.70566 1.78835 2.81196
Spine1  6.05153 2.36947 -1.85727
HEad  -6.74002 -2.02496 2.46293
LeftShoulder1  -3.88251e-019 9.70628e-020 -3.87848e-018
LeftArm  -29.7759 60.5606 -70.4918
LeftForeArm  -7.78934 -7.7798 -1.99675
LeftHand  -0.330941 0.0951743 7.92432
RightShoulder  8.32194 10.9777 38.4465
RightArm  21.1569 -37.7931 19.0635
RightForeArm  2.17674 19.9436 -8.99925
RightHand  -1.50813 6.78251 -14.3114
LeftUpLeg  -1.90809 -2.40367 -5.3064
LeftLeg  7.6632 10.9762 3.49544
LeftFoot  -2.51481 -0.45784 4.8707
LeftToes  7.79675e-011 9.80247e-012 -3.28897e-011
347
root  22.4232 40.6802 79.996 -2.82891 -6.88163 1.30049
RightUpLeg  -1.67933 0.0839152 2.12157
RightLeg  4.2602 -1.97867 -0.225565
RightFoot  -0.311791 0.281794 -2.58405
RightToes  5.82077e-011 -3.18055e-015 -2.98177e-016
Spine  0.139061 1.7838 2.48951
Spine1  6.69582 2.31865 -1.69877
HEad  -7.25742 -2.64087 2.67145
LeftShoulder1  -3.88251e-019 9.70628e-020 -3.87848e-018
LeftArm  -28.4385 60.2729 -70.0444
LeftForeArm  -8.55765 -9.48904 -2.25006
LeftHand  -0.344061 -0.270172 7.67975
RightShoulder  8.26804 10.9512 38.246
RightArm  15.7474 -38.075 19.3261
RightForeArm  7.49329 18.0917 -6.63125
RightHand  -1.41959 6.70672 -13.5674
LeftUpLeg  -1.99734 -2.80722 -5.38654
LeftLeg  6.77674 10.6425 3.00759
LeftFoot  -2.40614 -0.455421 4.79802
LeftToes  7.79675e-011 9.80247e-012 -3.28897e-011
348
root  22.4427 40.7033 80.0703 -2.60769 -6.08771 1.33209
RightUpLeg  -1.57812 0.0274463 1.98775
RightLeg  4.02345 -2.68621 -0.18209
RightFoot  -0.456404 0.26907 -2.47652
RightToes  5.82077e-011 -3.18055e-015 -2.98177e-016
Spine  0.213393 1.71089 2.14059
Spine1  6.87571 2.19398 -1.54339
HEad  -7.71227 -2.97027 2.88907
LeftShoulder1  -3.88251e-019 9.70628e-020 -3.87848e-018
LeftArm  -27.4312 59.9024 -69.7941
LeftForeArm  -8.85237 -11.0583 -2.46804
LeftHand  -0.373377 -0.644155 7.80048
RightShoulder  8.27087 10.9484 38.2662
RightArm  10.9018 -38.2402 19.2333
RightForeArm  12.3766 16.0087 -4.76092
RightHand  -1.32122 6.53147 -12.8264
LeftUpLeg  -1.90862 -3.27651 -5.57714
LeftLeg  6.12887 10.2988 2.84337
LeftFoot  -2.15371 -0.468637 4.83202
LeftToes  7.79675e-011 9.80247e-012 -3.28897e-011
349
root  22.46 40.724 80.1382 -2.39026 -5.39488 1.36171
RightUpLeg  -1.56766 -0.035611 1.8627
RightLeg  3.92588 -3.29695 -0.146105
RightFoot  -0.572144 0.262228 -2.4172
RightToes  5.82077e-011 -3.18055e-015 -2.98177e-016
Spine  0.509501 1.63759 1.58948
Spine1  6.72153 1.99398 -1.08053
HEad  -8.24746 -3.17587 2.87753
LeftShoulder1  -3.88251e-019 9.70628e-020 -3.87848e-018
LeftArm  -27.0854 59.3696 -69.9899
LeftForeArm  -8.86962 -12.1878 -2.62671
LeftHand  -0.409805 -1.05558 7.999
RightShoulder  8.27113 10.955 38.2525
RightArm  7.26708 -38.382 19.1066
RightForeArm  16.386 13.7031 -3.57407
RightHand  -1.28808 6.46188 -12.5807
LeftUpLeg  -1.86092 -3.65263 -5.78071
LeftLeg  5.69817 9.99878 2.85017
LeftFoot  -1.94333 -0.474296 4.80418
LeftToes  7.79675e-011 9.80247e-012 -3.28897e-011
350
root  22.4724 40.7411 80.2005 -2.08465 -4.85142 1.36919
RightUpLeg  -1.66342 -0.0903602 1.76529
RightLeg  3.8122 -3.78512 -0.0580713
RightFoot  -0.586036 0.259462 -2.38878
RightToes  5.82077e-011 -3.18055e-015 -2.98177e-016
Spine  0.906524 1.58866 0.983309
Spine1  6.16015 1.77762 -0.443552
HEad  -8.63177 -3.34718 2.70839
LeftShoulder1  -3.88251e-019 9.70628e-020 -3.87848e-018
LeftArm  -27.2283 58.8396 -70.4776
LeftForeArm  -9.0083 -12.8976 -2.74836
LeftHand  -0.424356 -1.22036 8.06854
RightShoulder  8.26146 10.9653 38.1823
RightArm  5.09806 -38.6267 18.9791
RightForeArm  19.2891 11.3537 -3.08193
RightHand  -1.30957 6.54216 -12.7035
LeftUpLeg  -1.80519 -3.83083 -5.86928
LeftLeg  5.06123 9.68382 2.64962
LeftFoot  -1.77847 -0.480468 4.80016
LeftToes  7.79675e-011 9.80247e-012 -3.28897e-011
